<?xml version="1.0" encoding="utf-8"?>
<svg viewBox="0 0 500 500" xmlns="http://www.w3.org/2000/svg">
  <rect x="72.864" y="14.677" width="63.957" height="19.438" style="stroke: rgb(0, 0, 0); fill: rgb(3, 63, 136);"/>
  <rect x="290.6" y="14.677" width="63.957" height="19.438" style="stroke: rgb(0, 0, 0); fill: rgb(238, 108, 77);"/>
  <rect x="145.442" y="14.677" width="63.957" height="19.438" style="stroke: rgb(0, 0, 0); fill: rgb(46, 133, 64);"/>
  <rect x="218.021" y="14.677" width="63.957" height="19.438" style="stroke: rgb(0, 0, 0); fill: rgb(248, 244, 227);"/>
  <rect x="363.179" y="14.677" width="63.957" height="19.438" style="stroke: rgb(0, 0, 0); fill: rgb(231, 245, 158);"/>
  <ellipse style="fill: rgb(216, 216, 216);" cx="112.051" cy="165.505" rx="37.081" ry="8.829"/>
  <path d="M 111.177 165.544 C 108.747 165.544 106.77 164.671 106.729 163.587 L 106.729 108.559 L 115.626 108.559 L 115.626 163.587 C 115.585 164.671 113.61 165.544 111.177 165.544 Z" style="fill: rgb(216, 216, 216); stroke: rgb(0, 0, 0);"/>
  <ellipse style="fill: rgb(216, 216, 216); stroke: rgb(0, 0, 0);" cx="111.178" cy="108.287" rx="4.449" ry="2.272"/>
  <path d="M 113.971 121.439 C 113.057 121.439 112.316 119.74 112.316 117.645 C 112.316 115.55 113.057 113.851 113.971 113.851 C 114.316 113.851 168.838 113.851 168.838 113.851 L 168.838 121.439 C 114.205 121.411 114.089 121.439 113.971 121.439 Z" style="fill: rgb(216, 216, 216); stroke: rgb(0, 0, 0);"/>
  <ellipse style="fill: rgb(216, 216, 216); stroke: rgb(0, 0, 0);" cx="30.531" cy="58.937" rx="0.565" ry="0.124"/>
  <ellipse style="fill: rgb(216, 216, 216); stroke: rgb(0, 0, 0);" cx="169.183" cy="117.645" rx="1.655" ry="3.794"/>
  <rect x="144.145" y="118.9" width="19.646" height="6.772" style="fill: rgb(216, 216, 216); stroke: rgb(0, 0, 0);"/>
  <ellipse style="fill: rgb(238, 108, 77);" cx="147.911" cy="122.236" rx="2.149" ry="2.149"/>
  <ellipse style="fill: rgb(231, 245, 158);" cx="153.911" cy="122.236" rx="2.149" ry="2.149"/>
  <ellipse style="fill: rgb(46, 133, 64);" cx="159.911" cy="122.236" rx="2.149" ry="2.149"/>
  <rect x="133.493" y="97.775" width="7.832" height="14.592" style="fill: rgb(216, 216, 216); stroke: rgb(0, 0, 0); stroke-width: 0.5px;" transform="matrix(0.678778, -0.734343, 0, 1.473235, -0.207808, 97.969475)" rx="0.357" ry="0.357"/>
  <rect x="79.789" y="138.234" width="10.823" height="5.812" style="fill: rgb(216, 216, 216); stroke: rgb(0, 0, 0); stroke-width: 0.5px;" transform="matrix(1, 0, -0.878957, 1, 126.610085, 0.000151)" rx="0.455" ry="0.455"/>
  <rect x="79.789" y="144.046" width="10.823" height="21.498" style="fill: rgb(216, 216, 216); stroke: rgb(0, 0, 0); stroke-width: 0.5px;"/>
  <path style="fill: rgb(216, 216, 216); stroke: rgb(0, 0, 0);" d="M 81.917 147.821 C 81.917 147.821 87.536 147.821 87.395 147.821"/>
  <path style="fill: rgb(216, 216, 216); stroke: rgb(0, 0, 0);" d="M 81.917 149.927 C 81.917 149.927 87.536 149.927 87.395 149.927"/>
  <path style="fill: rgb(216, 216, 216); stroke: rgb(0, 0, 0);" d="M 81.917 149.927 C 81.917 149.927 87.536 149.927 87.395 149.927"/>
  <ellipse style="fill: rgb(216, 216, 216);" cx="205.919" cy="287.823" rx="37.081" ry="8.829" transform="matrix(1.0000000000000002, 0, 0, 1, 62.88138189148464, -140.7599780440134)"/>
  <ellipse style="fill: rgb(216, 216, 216);" cx="422.756" cy="152.875" rx="37.081" ry="8.829"/>
  <ellipse style="fill: rgb(216, 216, 216);" cx="218.795" cy="284.732" rx="51.547" ry="14.843"/>
  <rect x="239.911" y="86.646" width="26.58" height="5.059" style="stroke: rgb(0, 0, 0); fill: rgb(238, 108, 77);" transform="matrix(0.928253, 0.371949, 0, 1.077292, 33.674953, -129.227188)"/>
  <path style="stroke: rgb(0, 0, 0); fill: none;" d="M 342.753 48.195 C 316.884 63.531 268.596 50.967 267.376 48.195 C 260.565 63.081 218.194 64.461 206.784 53.96"/>
  <path style="stroke: rgb(0, 0, 0); fill: none;" d="M 331.75 53.351 C 305.881 68.687 257.593 56.123 256.373 53.351 C 249.562 68.237 207.191 69.617 195.781 59.116"/>
  <path d="M 268.743 147.821 C 267.163 147.821 265.768 147.05 265.813 145.78 L 265.813 48.195 L 271.598 48.195 L 271.598 145.78 C 271.644 147.05 270.325 147.821 268.743 147.821 Z" style="stroke: rgb(0, 0, 0); fill: rgb(238, 108, 77);"/>
  <ellipse style="stroke: rgb(0, 0, 0); fill: rgb(238, 108, 77);" cx="268.706" cy="48.322" rx="2.894" ry="0.873"/>
  <rect x="267.077" y="119.558" width="3.368" height="8.338" style="fill: rgb(216, 216, 216); stroke: rgb(0, 0, 0);"/>
  <path style="stroke: rgb(0, 0, 0); fill: none;" d="M 354.557 63.199 C 328.688 78.535 280.4 65.971 279.18 63.199 C 272.369 78.085 229.998 79.465 218.588 68.964"/>
  <path d="M 405.223 138.803 L 439.62 138.803 C 439.598 150.72 439.62 150.862 439.62 151.006 C 439.62 153.705 431.92 155.892 422.421 155.892 C 412.922 155.892 405.222 153.705 405.222 151.006 C 405.223 150.579 405.223 138.803 405.223 138.803 Z" style="stroke: rgb(0, 0, 0); fill: rgb(231, 245, 158);"/>
  <path d="M 405.223 125.801 L 439.62 125.801 C 439.598 137.718 439.62 137.86 439.62 138.004 C 439.62 140.703 431.92 142.89 422.421 142.89 C 412.922 142.89 405.222 140.703 405.222 138.004 C 405.223 137.577 405.223 125.801 405.223 125.801 Z" style="stroke: rgb(0, 0, 0); fill: rgb(231, 245, 158);"/>
  <path d="M 405.223 112.178 L 439.62 112.178 C 439.598 124.095 439.62 124.237 439.62 124.381 C 439.62 127.08 431.92 129.267 422.421 129.267 C 412.922 129.267 405.222 127.08 405.222 124.381 C 405.223 123.954 405.223 112.178 405.223 112.178 Z" style="stroke: rgb(0, 0, 0); fill: rgb(231, 245, 158);"/>
  <ellipse style="stroke: rgb(0, 0, 0); fill: rgb(231, 245, 158);" cx="422.421" cy="112.344" rx="17.199" ry="4.025"/>
  <rect x="240.35" y="229.753" width="33.95" height="15.021" style="stroke: rgb(0, 0, 0); fill: rgb(3, 63, 136);" transform="matrix(0.990157, -0.13996, 0, 1.009941, -47.182613, 50.757542)"/>
  <rect x="169.888" y="193.037" width="23.997" height="12.621" style="stroke: rgb(0, 0, 0); fill: rgb(3, 63, 136);" transform="matrix(0.831922, -0.554892, 0, 1.202035, 29.504416, 124.85788)"/>
  <rect x="239.751" y="230.328" width="33.865" height="15.058" style="stroke: rgb(0, 0, 0); fill: rgb(3, 63, 136);" transform="matrix(0.992633, 0.121163, 0, 1.007422, -13.567251, -16.682974)"/>
  <g transform="matrix(1, 0, 0, 1, -37.061234, 54.297844)">
    <path d="M 73.274 224.264 C 74.337 224.264 75.362 224.429 76.324 224.734 C 77.189 222.94 78.434 221.362 79.953 220.106 C 80.811 215.414 84.919 211.858 89.859 211.858 C 90.981 211.858 92.059 212.041 93.067 212.38 C 96.26 206.834 102.246 203.1 109.105 203.1 C 112.947 203.1 116.516 204.272 119.473 206.277 C 121.186 204.929 123.347 204.124 125.697 204.124 C 126.323 204.124 126.936 204.181 127.53 204.29 C 130.723 198.745 136.709 195.012 143.567 195.012 C 153.78 195.012 162.06 203.292 162.06 213.505 C 162.06 214.751 161.937 215.968 161.702 217.145 C 168.223 218.206 173.2 223.864 173.2 230.685 C 173.2 231.128 173.179 231.566 173.138 231.998 L 173.2 231.998 C 173.481 231.87 177.528 246.647 171.669 249.31 C 125.131 250.023 63.556 254.024 63.447 249.31 C 57.419 239.68 66.298 234.956 66.503 234.943 C 67.829 230.508 68.516 224.264 73.274 224.264 Z" style="fill: rgb(216, 216, 216); stroke: rgb(0, 0, 0);"/>
    <path style="fill: rgb(216, 216, 216); stroke: rgba(0, 0, 0, 0.6);" d="M 79.789 233.344 C 85.888 230.147 89.1 229.049 94.785 229.721 C 100.577 230.239 103.737 231.361 106.773 235.761"/>
    <path style="fill: rgb(216, 216, 216); stroke: rgba(0, 0, 0, 0.6);" d="M 128.739 233.51 C 133.007 226.65 139.638 224.939 145.233 223.727 C 150.526 222.58 151.687 223.868 161.383 225.105"/>
    <path style="fill: rgb(216, 216, 216); stroke: rgba(0, 0, 0, 0.6);" d="M 99.257 218.957 C 105.356 215.76 104.915 214.921 110.59 214.169 C 111.963 213.987 117.201 212.952 120.58 217.378"/>
  </g>
  <line style="fill: rgb(216, 216, 216); stroke: rgb(0, 0, 0);" x1="32.262" y1="312.691" x2="29.701" y2="317.559"/>
  <line style="fill: rgb(216, 216, 216); stroke: rgb(0, 0, 0);" x1="46.864" y1="312.691" x2="44.303" y2="317.559"/>
  <line style="fill: rgb(216, 216, 216); stroke: rgb(0, 0, 0);" x1="71.537" y1="312.691" x2="68.976" y2="317.559"/>
  <line style="fill: rgb(216, 216, 216); stroke: rgb(0, 0, 0);" x1="99.885" y1="311.782" x2="97.324" y2="316.65"/>
  <line style="fill: rgb(216, 216, 216); stroke: rgb(0, 0, 0);" x1="81.356" y1="321.518" x2="78.795" y2="326.386"/>
  <line style="fill: rgb(216, 216, 216); stroke: rgb(0, 0, 0);" x1="58.788" y1="314.908" x2="56.227" y2="319.776"/>
  <line style="fill: rgb(216, 216, 216); stroke: rgb(0, 0, 0);" x1="116.022" y1="312.691" x2="113.461" y2="317.559"/>
  <line style="fill: rgb(216, 216, 216); stroke: rgb(0, 0, 0);" x1="104.824" y1="319.776" x2="102.263" y2="324.644"/>
  <line style="fill: rgb(216, 216, 216); stroke: rgb(0, 0, 0);" x1="127.039" y1="307.823" x2="124.478" y2="312.691"/>
  <g transform="matrix(0.010454, 0.633564, -0.633556, 0.010454, 355.564758, 122.493805)" style="">
    <ellipse style="fill: rgb(238, 108, 77);" cx="200.151" cy="254.922" rx="2.149" ry="2.149"/>
    <ellipse style="fill: rgb(231, 245, 158);" cx="206.151" cy="254.922" rx="2.149" ry="2.149"/>
    <ellipse style="fill: rgb(46, 133, 64);" cx="212.151" cy="254.922" rx="2.149" ry="2.149"/>
  </g>
  <g transform="matrix(0.010454, 0.633564, -0.633556, 0.010454, 366.625641, 120.525734)" style="">
    <ellipse style="fill: rgb(238, 108, 77);" cx="200.151" cy="254.922" rx="2.149" ry="2.149"/>
    <ellipse style="fill: rgb(231, 245, 158);" cx="206.151" cy="254.922" rx="2.149" ry="2.149"/>
    <ellipse style="fill: rgb(46, 133, 64);" cx="212.151" cy="254.922" rx="2.149" ry="2.149"/>
  </g>
  <g transform="matrix(0.010454, 0.633564, -0.633556, 0.010454, 377.472778, 119.189873)" style="">
    <ellipse style="fill: rgb(238, 108, 77);" cx="200.151" cy="254.922" rx="2.149" ry="2.149"/>
    <ellipse style="fill: rgb(231, 245, 158);" cx="206.151" cy="254.922" rx="2.149" ry="2.149"/>
    <ellipse style="fill: rgb(46, 133, 64);" cx="212.151" cy="254.922" rx="2.149" ry="2.149"/>
  </g>
</svg>