<?xml version="1.0" encoding="utf-8"?>
<svg viewBox="385.675 108.319 74.162 53.385" xmlns="http://www.w3.org/2000/svg">
  <ellipse style="fill: rgb(216, 216, 216);" cx="422.756" cy="152.875" rx="37.081" ry="8.829"/>
  <path d="M 405.223 138.803 L 439.62 138.803 C 439.598 150.72 439.62 150.862 439.62 151.006 C 439.62 153.705 431.92 155.892 422.421 155.892 C 412.922 155.892 405.222 153.705 405.222 151.006 C 405.223 150.579 405.223 138.803 405.223 138.803 Z" style="stroke: rgb(0, 0, 0); fill: rgb(231, 245, 158);"/>
  <path d="M 405.223 125.801 L 439.62 125.801 C 439.598 137.718 439.62 137.86 439.62 138.004 C 439.62 140.703 431.92 142.89 422.421 142.89 C 412.922 142.89 405.222 140.703 405.222 138.004 C 405.223 137.577 405.223 125.801 405.223 125.801 Z" style="stroke: rgb(0, 0, 0); fill: rgb(231, 245, 158);"/>
  <path d="M 405.223 112.178 L 439.62 112.178 C 439.598 124.095 439.62 124.237 439.62 124.381 C 439.62 127.08 431.92 129.267 422.421 129.267 C 412.922 129.267 405.222 127.08 405.222 124.381 C 405.223 123.954 405.223 112.178 405.223 112.178 Z" style="stroke: rgb(0, 0, 0); fill: rgb(231, 245, 158);"/>
  <ellipse style="stroke: rgb(0, 0, 0); fill: rgb(231, 245, 158);" cx="422.421" cy="112.344" rx="17.199" ry="4.025"/>
</svg>