<?xml version="1.0" encoding="utf-8"?>
<svg viewBox="195.781 47.449 158.776 108.443" xmlns="http://www.w3.org/2000/svg">
  <ellipse style="fill: rgb(216, 216, 216);" cx="205.919" cy="287.823" rx="37.081" ry="8.829" transform="matrix(1, 0, 0, 1, 62.881381, -140.759977)"/>
  <rect x="239.911" y="86.646" width="26.58" height="5.059" style="stroke: rgb(0, 0, 0); fill: rgb(238, 108, 77);" transform="matrix(0.928253, 0.371949, 0, 1.077292, 33.674953, -129.227186)"/>
  <path style="stroke: rgb(0, 0, 0); fill: none;" d="M 342.753 48.195 C 316.884 63.531 268.596 50.967 267.376 48.195 C 260.565 63.081 218.194 64.461 206.784 53.96"/>
  <path style="stroke: rgb(0, 0, 0); fill: none;" d="M 331.75 53.351 C 305.881 68.687 257.593 56.123 256.373 53.351 C 249.562 68.237 207.191 69.617 195.781 59.116"/>
  <path d="M 268.743 147.821 C 267.163 147.821 265.768 147.05 265.813 145.78 L 265.813 48.195 L 271.598 48.195 L 271.598 145.78 C 271.644 147.05 270.325 147.821 268.743 147.821 Z" style="stroke: rgb(0, 0, 0); fill: rgb(238, 108, 77);"/>
  <ellipse style="stroke: rgb(0, 0, 0); fill: rgb(238, 108, 77);" cx="268.706" cy="48.322" rx="2.894" ry="0.873"/>
  <rect x="267.077" y="119.558" width="3.368" height="8.338" style="fill: rgb(216, 216, 216); stroke: rgb(0, 0, 0);"/>
  <path style="stroke: rgb(0, 0, 0); fill: none;" d="M 354.557 63.199 C 328.688 78.535 280.4 65.971 279.18 63.199 C 272.369 78.085 229.998 79.465 218.588 68.964"/>
</svg>