<?xml version="1.0" encoding="utf-8"?>
<svg viewBox="74.97 106.015 95.868 68.319" xmlns="http://www.w3.org/2000/svg">
  <ellipse style="fill: rgb(216, 216, 216);" cx="112.051" cy="165.505" rx="37.081" ry="8.829"/>
  <path d="M 111.177 165.544 C 108.747 165.544 106.77 164.671 106.729 163.587 L 106.729 108.559 L 115.626 108.559 L 115.626 163.587 C 115.585 164.671 113.61 165.544 111.177 165.544 Z" style="fill: rgb(216, 216, 216); stroke: rgb(0, 0, 0);"/>
  <ellipse style="fill: rgb(216, 216, 216); stroke: rgb(0, 0, 0);" cx="111.178" cy="108.287" rx="4.449" ry="2.272"/>
  <path d="M 113.971 121.439 C 113.057 121.439 112.316 119.74 112.316 117.645 C 112.316 115.55 113.057 113.851 113.971 113.851 C 114.316 113.851 168.838 113.851 168.838 113.851 L 168.838 121.439 C 114.205 121.411 114.089 121.439 113.971 121.439 Z" style="fill: rgb(216, 216, 216); stroke: rgb(0, 0, 0);"/>
  <ellipse style="fill: rgb(216, 216, 216); stroke: rgb(0, 0, 0);" cx="169.183" cy="117.645" rx="1.655" ry="3.794"/>
  <rect x="144.145" y="118.9" width="19.646" height="6.772" style="fill: rgb(216, 216, 216); stroke: rgb(0, 0, 0);"/>
  <ellipse style="fill: rgb(238, 108, 77);" cx="147.911" cy="122.236" rx="2.149" ry="2.149"/>
  <ellipse style="fill: rgb(231, 245, 158);" cx="153.911" cy="122.236" rx="2.149" ry="2.149"/>
  <ellipse style="fill: rgb(46, 133, 64);" cx="159.911" cy="122.236" rx="2.149" ry="2.149"/>
  <rect x="133.493" y="97.775" width="7.832" height="14.592" style="fill: rgb(216, 216, 216); stroke: rgb(0, 0, 0); stroke-width: 0.5px;" transform="matrix(0.678778, -0.734343, 0, 1.473235, -0.207808, 97.969473)" rx="0.357" ry="0.357"/>
  <rect x="79.789" y="138.234" width="10.823" height="5.812" style="fill: rgb(216, 216, 216); stroke: rgb(0, 0, 0); stroke-width: 0.5px;" transform="matrix(1, 0, -0.878957, 1, 126.610083, 0.000151)" rx="0.455" ry="0.455"/>
  <rect x="79.789" y="144.046" width="10.823" height="21.498" style="fill: rgb(216, 216, 216); stroke: rgb(0, 0, 0); stroke-width: 0.5px;"/>
  <path style="fill: rgb(216, 216, 216); stroke: rgb(0, 0, 0);" d="M 81.917 147.821 C 81.917 147.821 87.536 147.821 87.395 147.821"/>
  <path style="fill: rgb(216, 216, 216); stroke: rgb(0, 0, 0);" d="M 81.917 149.927 C 81.917 149.927 87.536 149.927 87.395 149.927"/>
  <path style="fill: rgb(216, 216, 216); stroke: rgb(0, 0, 0);" d="M 81.917 149.927 C 81.917 149.927 87.536 149.927 87.395 149.927"/>
</svg>