<?xml version="1.0" encoding="utf-8"?>
<svg viewBox="24.291 249.31 113.47 77.076" xmlns="http://www.w3.org/2000/svg">
  <g transform="matrix(1, 0, 0, 1, -37.061233, 54.297843)">
    <path d="M 73.274 224.264 C 74.337 224.264 75.362 224.429 76.324 224.734 C 77.189 222.94 78.434 221.362 79.953 220.106 C 80.811 215.414 84.919 211.858 89.859 211.858 C 90.981 211.858 92.059 212.041 93.067 212.38 C 96.26 206.834 102.246 203.1 109.105 203.1 C 112.947 203.1 116.516 204.272 119.473 206.277 C 121.186 204.929 123.347 204.124 125.697 204.124 C 126.323 204.124 126.936 204.181 127.53 204.29 C 130.723 198.745 136.709 195.012 143.567 195.012 C 153.78 195.012 162.06 203.292 162.06 213.505 C 162.06 214.751 161.937 215.968 161.702 217.145 C 168.223 218.206 173.2 223.864 173.2 230.685 C 173.2 231.128 173.179 231.566 173.138 231.998 L 173.2 231.998 C 173.481 231.87 177.528 246.647 171.669 249.31 C 125.131 250.023 63.556 254.024 63.447 249.31 C 57.419 239.68 66.298 234.956 66.503 234.943 C 67.829 230.508 68.516 224.264 73.274 224.264 Z" style="fill: rgb(216, 216, 216); stroke: rgb(0, 0, 0);"/>
    <path style="fill: rgb(216, 216, 216); stroke: rgba(0, 0, 0, 0.6);" d="M 79.789 233.344 C 85.888 230.147 89.1 229.049 94.785 229.721 C 100.577 230.239 103.737 231.361 106.773 235.761"/>
    <path style="fill: rgb(216, 216, 216); stroke: rgba(0, 0, 0, 0.6);" d="M 128.739 233.51 C 133.007 226.65 139.638 224.939 145.233 223.727 C 150.526 222.58 151.687 223.868 161.383 225.105"/>
    <path style="fill: rgb(216, 216, 216); stroke: rgba(0, 0, 0, 0.6);" d="M 99.257 218.957 C 105.356 215.76 104.915 214.921 110.59 214.169 C 111.963 213.987 117.201 212.952 120.58 217.378"/>
  </g>
  <line style="fill: rgb(216, 216, 216); stroke: rgb(0, 0, 0);" x1="32.262" y1="312.691" x2="29.701" y2="317.559"/>
  <line style="fill: rgb(216, 216, 216); stroke: rgb(0, 0, 0);" x1="46.864" y1="312.691" x2="44.303" y2="317.559"/>
  <line style="fill: rgb(216, 216, 216); stroke: rgb(0, 0, 0);" x1="71.537" y1="312.691" x2="68.976" y2="317.559"/>
  <line style="fill: rgb(216, 216, 216); stroke: rgb(0, 0, 0);" x1="99.885" y1="311.782" x2="97.324" y2="316.65"/>
  <line style="fill: rgb(216, 216, 216); stroke: rgb(0, 0, 0);" x1="81.356" y1="321.518" x2="78.795" y2="326.386"/>
  <line style="fill: rgb(216, 216, 216); stroke: rgb(0, 0, 0);" x1="58.788" y1="314.908" x2="56.227" y2="319.776"/>
  <line style="fill: rgb(216, 216, 216); stroke: rgb(0, 0, 0);" x1="116.022" y1="312.691" x2="113.461" y2="317.559"/>
  <line style="fill: rgb(216, 216, 216); stroke: rgb(0, 0, 0);" x1="104.824" y1="319.776" x2="102.263" y2="324.644"/>
  <line style="fill: rgb(216, 216, 216); stroke: rgb(0, 0, 0);" x1="127.039" y1="307.823" x2="124.478" y2="312.691"/>
</svg>